<?xml version="1.0" encoding="UTF-8" standalone="no"?>
<svg
   viewBox="0 0 128 128"
   version="1.1"
   id="svg34"
   sodipodi:docname="docker.svg"
   inkscape:version="1.2 (dc2aedaf03, 2022-05-15)"
   xmlns:inkscape="http://www.inkscape.org/namespaces/inkscape"
   xmlns:sodipodi="http://sodipodi.sourceforge.net/DTD/sodipodi-0.dtd"
   xmlns="http://www.w3.org/2000/svg"
   xmlns:svg="http://www.w3.org/2000/svg">
  <defs
     id="defs38" />
  <sodipodi:namedview
     id="namedview36"
     pagecolor="#ffffff"
     bordercolor="#666666"
     borderopacity="1.0"
     inkscape:pageshadow="2"
     inkscape:pageopacity="0.0"
     inkscape:pagecheckerboard="0"
     showgrid="false"
     inkscape:zoom="2.9112912"
     inkscape:cx="77.45704"
     inkscape:cy="61.484746"
     inkscape:window-width="1366"
     inkscape:window-height="713"
     inkscape:window-x="0"
     inkscape:window-y="0"
     inkscape:window-maximized="1"
     inkscape:current-layer="svg34"
     inkscape:showpageshadow="2"
     inkscape:deskcolor="#d1d1d1" />
  <g
     id="g365"
     transform="translate(0.6,16.916216)">
    <path
       fill-rule="evenodd"
       clip-rule="evenodd"
       fill="#F5F5F5"
       d="m 73.277901,33.87965 h 11.389826 v 11.591415 h 5.74531 c 2.620667,0 5.34213,-0.503974 7.862003,-1.310334 1.209539,-0.403179 2.62067,-1.007949 3.83021,-1.713513 -1.61272,-2.116693 -2.419081,-4.737361 -2.620671,-7.358029 -0.302385,-3.527822 0.403179,-8.164388 2.822261,-10.88585 l 1.20954,-1.411129 1.41112,1.108744 c 3.62862,2.923052 6.55167,6.854054 7.15644,11.49062 4.33418,-1.310334 9.37393,-1.007949 13.20414,1.209539 l 1.51192,0.907154 -0.80636,1.612719 c -3.22544,6.249284 -9.9787,8.265183 -16.53036,7.862003 -9.877906,24.493164 -31.246428,36.084579 -57.251515,36.084579 -13.405724,0 -25.702703,-5.039746 -32.758347,-16.933546 l -0.100795,-0.20159 -1.007949,-2.116693 C 15.925596,58.574404 15.220032,52.829094 15.724006,47.083784 l 0.20159,-1.713514 h 9.676312 V 33.87965 H 36.991733 V 22.489825 H 59.670588 V 11.1 h 13.607313 z"
       id="path2"
       style="fill:#028bb8;fill-opacity:1;stroke-width:1.00795"
       sodipodi:nodetypes="cccscccccccccccsccccccccccccc" />
    <path
       fill="#00aada"
       d="m 110.06804,38.113037 c 0.80636,-5.9469 -3.62861,-10.583466 -6.45087,-12.800954 -3.12464,3.628617 -3.628617,13.304928 1.31033,17.336725 -2.82225,2.419078 -8.567564,4.737361 -14.615258,4.737361 H 17.538315 c -0.60477,6.249284 0.503974,11.994594 3.023847,16.933545 l 0.806359,1.511924 c 0.503975,0.907154 1.108745,1.713513 1.713514,2.620667 3.023847,0.20159 5.74531,0.302385 8.265183,0.20159 4.938951,-0.100795 8.970747,-0.705564 12.095389,-1.713513 0.503975,-0.20159 0.907155,0.100794 1.108744,0.503974 0.20159,0.503975 -0.100795,0.907154 -0.503974,1.108744 -0.40318,0.100795 -0.80636,0.302385 -1.310334,0.40318 -2.419078,0.705564 -5.039746,1.108744 -8.365978,1.310334 h -0.604769 c -1.310334,0.100795 -2.721463,0.100795 -4.233387,0.100795 -1.612718,0 -3.124642,0 -4.93895,-0.100795 6.047694,6.854054 15.522416,10.88585 27.416216,10.88585 25.198728,0 46.567249,-11.188235 55.941175,-36.185373 6.75326,0.705564 13.20413,-1.00795 16.12719,-6.75326 -4.53577,-2.620667 -10.58347,-1.814308 -14.0105,-0.100794 z"
       id="path4"
       style="stroke-width:1.00795" />
    <path
       fill="#28b8eb"
       d="m 110.06804,38.113037 c 0.80636,-5.9469 -3.62861,-10.583466 -6.45087,-12.800954 -3.12464,3.628617 -3.628617,13.304928 1.31033,17.336725 -2.82225,2.419078 -8.567564,4.737361 -14.615258,4.737361 H 21.771701 c -0.302385,9.575516 3.225437,16.83275 9.575517,21.166931 4.938951,-0.100795 8.970747,-0.705564 12.095389,-1.713513 0.503975,-0.20159 0.907155,0.100795 1.108744,0.503974 0.20159,0.503975 -0.100795,0.907154 -0.503974,1.108744 -0.40318,0.100795 -0.80636,0.302385 -1.310334,0.40318 -2.419078,0.705564 -5.241336,1.209539 -8.567568,1.411129 L 34.06868,70.165819 C 42.636248,74.600795 55.034022,74.5 69.3469,69.057075 c 15.925596,-6.14849 30.84324,-17.8407 41.22512,-31.145628 -0.20159,0.100795 -0.30239,0.20159 -0.50398,0.20159 z"
       id="path6"
       style="stroke-width:1.00795" />
    <path
       fill="#028bb8"
       d="m 17.63911,54.945787 c 0.403179,3.326232 1.411128,6.450874 2.923052,9.373927 l 0.806359,1.511924 c 0.503975,0.907154 1.108745,1.713513 1.713514,2.620667 3.023847,0.20159 5.74531,0.302385 8.265183,0.20159 4.938951,-0.100795 8.970747,-0.705564 12.095389,-1.713513 0.503975,-0.20159 0.907155,0.100794 1.108744,0.503974 0.20159,0.503975 -0.100795,0.907154 -0.503974,1.108744 -0.40318,0.100795 -0.80636,0.302385 -1.310334,0.40318 -2.419078,0.705564 -5.241336,1.209539 -8.567568,1.411129 h -0.403179 c -1.310334,0.100794 -2.721463,0.100794 -4.132592,0.100794 -1.612718,0 -3.225437,0 -4.93895,-0.100794 6.047694,6.854054 15.623211,10.88585 27.517011,10.88585 21.570111,0 40.317965,-8.164388 51.203815,-26.206677 H 17.63911 Z"
       id="path8"
       style="stroke-width:1.00795" />
    <path
       fill="#019bc6"
       d="m 22.477266,54.945787 c 1.310333,5.846105 4.334181,10.482671 8.869952,13.607313 4.938951,-0.100795 8.970747,-0.705564 12.095389,-1.713513 0.503975,-0.20159 0.907155,0.100795 1.108744,0.503974 0.20159,0.503975 -0.100795,0.907154 -0.503974,1.108744 -0.40318,0.100795 -0.80636,0.302385 -1.310334,0.40318 -2.419078,0.705564 -5.241336,1.209539 -8.668363,1.411129 8.567568,4.434976 20.965342,4.334181 35.177425,-1.108744 8.567567,-3.326232 16.933545,-8.265183 24.392369,-14.212083 z"
       id="path10"
       style="stroke-width:1.00795" />
    <path
       fill-rule="evenodd"
       clip-rule="evenodd"
       fill="#00acd3"
       d="m 27.416216,35.693959 h 9.877902 v 9.877901 h -9.877902 z m 0.80636,0.907154 h 0.806359 v 8.164388 h -0.806359 z m 1.511923,0 h 0.80636 v 8.164388 h -0.80636 z m 1.511924,0 h 0.806359 v 8.164388 h -0.806359 z m 1.411129,0 h 0.806359 v 8.164388 h -0.806359 z m 1.511923,0 h 0.80636 v 8.164388 h -0.80636 z m 1.511924,0 h 0.806359 v 8.164388 h -0.806359 z m 3.124642,-12.196185 h 9.877902 v 9.777107 h -9.877902 z m 0.80636,0.80636 h 0.806359 v 8.164388 h -0.806359 z m 1.511923,0 h 0.80636 v 8.164388 h -0.80636 z m 1.411129,0 h 0.806359 v 8.164388 h -0.806359 z m 1.511924,0 h 0.806359 v 8.164388 h -0.806359 z m 1.511923,0 h 0.80636 v 8.164388 H 45.5593 Z m 1.511924,0 h 0.806359 v 8.164388 h -0.806359 z"
       id="path12"
       style="stroke-width:1.00795" />
    <path
       fill-rule="evenodd"
       clip-rule="evenodd"
       fill="#23c2ee"
       d="m 38.806041,35.693959 h 9.877902 v 9.877901 h -9.877902 z m 0.80636,0.907154 h 0.806359 v 8.164388 h -0.806359 z m 1.511923,0 h 0.80636 v 8.164388 h -0.80636 z m 1.411129,0 h 0.806359 v 8.164388 h -0.806359 z m 1.511924,0 h 0.806359 v 8.164388 h -0.806359 z m 1.511923,0 h 0.80636 v 8.164388 H 45.5593 Z m 1.511924,0 h 0.806359 v 8.164388 h -0.806359 z"
       id="path14"
       style="stroke-width:1.00795" />
    <path
       fill-rule="evenodd"
       clip-rule="evenodd"
       fill="#00acd3"
       d="m 50.195866,35.693959 h 9.877902 v 9.877901 h -9.877902 z m 0.80636,0.907154 h 0.806359 v 8.164388 h -0.806359 z m 1.411129,0 h 0.806359 v 8.164388 h -0.806359 z m 1.511923,0 h 0.80636 v 8.164388 h -0.80636 z m 1.511924,0 h 0.806359 v 8.164388 h -0.806359 z m 1.511924,0 h 0.806359 v 8.164388 h -0.806359 z m 1.411128,0 h 0.80636 v 8.164388 h -0.80636 z"
       id="path16"
       style="stroke-width:1.00795" />
    <path
       fill-rule="evenodd"
       clip-rule="evenodd"
       fill="#23c2ee"
       d="m 50.195866,24.404928 h 9.877902 v 9.777107 h -9.877902 z m 0.80636,0.80636 h 0.806359 v 8.164388 h -0.806359 z m 1.411129,0 h 0.806359 v 8.164388 h -0.806359 z m 1.511923,0 h 0.80636 v 8.164388 h -0.80636 z m 1.511924,0 h 0.806359 v 8.164388 h -0.806359 z m 1.511924,0 h 0.806359 v 8.164388 h -0.806359 z m 1.411128,0 h 0.80636 v 8.164388 h -0.80636 z m 3.124643,10.482671 h 9.877901 v 9.877901 h -9.877901 z m 0.907154,0.907154 h 0.806359 v 8.164388 h -0.806359 z m 1.411129,0 h 0.806359 v 8.164388 H 63.80318 Z m 1.511923,0 h 0.80636 v 8.164388 h -0.80636 z m 1.511924,0 h 0.806359 v 8.164388 h -0.806359 z m 1.411129,0 h 0.806359 v 8.164388 h -0.806359 z m 1.511923,0 h 0.80636 v 8.164388 h -0.80636 z"
       id="path18"
       style="stroke-width:1.00795" />
    <path
       fill-rule="evenodd"
       clip-rule="evenodd"
       fill="#00acd3"
       d="m 61.484897,24.404928 h 9.877901 v 9.777107 h -9.877901 z m 0.907154,0.80636 h 0.806359 v 8.164388 h -0.806359 z m 1.411129,0 h 0.806359 v 8.164388 H 63.80318 Z m 1.511923,0 h 0.80636 v 8.164388 h -0.80636 z m 1.511924,0 h 0.806359 v 8.164388 h -0.806359 z m 1.411129,0 h 0.806359 v 8.164388 h -0.806359 z m 1.511923,0 h 0.80636 v 8.164388 h -0.80636 z"
       id="path20"
       style="stroke-width:1.00795" />
    <path
       fill-rule="evenodd"
       clip-rule="evenodd"
       fill="#23c2ee"
       d="m 61.484897,13.015103 h 9.877901 v 9.877902 h -9.877901 z m 0.907154,0.80636 h 0.806359 v 8.265182 h -0.806359 z m 1.411129,0 h 0.806359 v 8.265182 H 63.80318 Z m 1.511923,0 h 0.80636 v 8.265182 h -0.80636 z m 1.511924,0 h 0.806359 v 8.265182 h -0.806359 z m 1.411129,0 h 0.806359 v 8.265182 h -0.806359 z m 1.511923,0 h 0.80636 v 8.265182 h -0.80636 z"
       id="path22"
       style="stroke-width:1.00795" />
    <path
       fill-rule="evenodd"
       clip-rule="evenodd"
       fill="#00acd3"
       d="m 72.874722,35.693959 h 9.877901 v 9.877901 h -9.877901 z m 0.806359,0.907154 h 0.806359 v 8.164388 h -0.806359 z m 1.511924,0 h 0.806359 v 8.164388 h -0.806359 z m 1.511923,0 h 0.80636 v 8.164388 h -0.80636 z m 1.411129,0 h 0.80636 v 8.164388 h -0.80636 z m 1.511924,0 h 0.806359 v 8.164388 h -0.806359 z m 1.511924,0 h 0.806359 v 8.164388 h -0.806359 z"
       id="path24"
       style="stroke-width:1.00795" />
    <path
       fill-rule="evenodd"
       clip-rule="evenodd"
       fill="#d4eef1"
       d="m 47.978378,61.598251 c 1.511924,0 2.721463,1.209539 2.721463,2.721463 0,1.511924 -1.209539,2.721462 -2.721463,2.721462 -1.511923,0 -2.721462,-1.209538 -2.721462,-2.721462 0.100795,-1.511924 1.310334,-2.721463 2.721462,-2.721463"
       id="path26"
       style="stroke-width:1.00795" />
    <path
       fill-rule="evenodd"
       clip-rule="evenodd"
       fill="#3a4d54"
       d="m 47.978378,62.303816 c 0.20159,0 0.503975,0 0.705565,0.100794 -0.20159,0.100795 -0.40318,0.40318 -0.40318,0.705565 0,0.40318 0.40318,0.806359 0.806359,0.806359 0.302385,0 0.60477,-0.20159 0.705565,-0.403179 0.100795,0.201589 0.100795,0.503974 0.100795,0.705564 0,1.108744 -0.907154,1.915103 -1.915104,1.915103 -1.108744,0 -1.915103,-0.907154 -1.915103,-1.915103 0,-1.007949 0.907154,-1.915103 1.915103,-1.915103 M 0,55.953736 h 126.29603 c -2.72147,-0.705564 -8.66837,-1.612719 -7.76121,-5.241335 -5.03975,5.74531 -17.03434,4.031796 -20.158985,1.209539 -3.427027,4.93895 -23.18283,3.023847 -24.493164,-0.80636 -4.233386,5.039746 -17.43752,5.039746 -21.670906,0 -1.411129,3.830207 -21.166932,5.74531 -24.493164,0.80636 C 24.694754,54.744197 12.599364,56.457711 7.5596184,50.712401 8.6683625,54.240223 2.7214626,55.248172 0,55.953736"
       id="path28"
       style="stroke-width:1.00795" />
    <path
       fill="#bfdbe0"
       d="M 55.235612,81.152464 C 48.482353,77.927027 44.853736,73.592846 42.737043,68.855485 c -2.519873,0.705564 -5.54372,1.209539 -8.970747,1.411129 -1.310334,0.100795 -2.721463,0.100795 -4.132592,0.100795 -1.713513,0 -3.427027,0 -5.241335,-0.100795 6.14849,6.148489 13.808903,10.88585 27.819396,10.986645 1.007949,-0.100795 2.015898,-0.100795 3.023847,-0.100795 z"
       id="path30"
       style="stroke-width:1.00795" />
    <path
       fill="#d4eef1"
       d="m 45.256916,73.189666 c -0.907154,-1.310334 -1.814309,-2.822257 -2.519873,-4.334181 -2.519873,0.705564 -5.54372,1.209539 -8.970747,1.411129 2.419078,1.310334 5.846105,2.519872 11.49062,2.923052 z"
       id="path32"
       style="stroke-width:1.00795" />
  </g>
</svg>
