<?xml version="1.0" encoding="UTF-8" standalone="no"?>
<svg
   viewBox="0 0 128 128"
   version="1.1"
   id="svg6"
   sodipodi:docname="flask.svg"
   inkscape:version="1.2 (dc2aedaf03, 2022-05-15)"
   xmlns:inkscape="http://www.inkscape.org/namespaces/inkscape"
   xmlns:sodipodi="http://sodipodi.sourceforge.net/DTD/sodipodi-0.dtd"
   xmlns="http://www.w3.org/2000/svg"
   xmlns:svg="http://www.w3.org/2000/svg">
  <defs
     id="defs10" />
  <sodipodi:namedview
     id="namedview8"
     pagecolor="#ffffff"
     bordercolor="#666666"
     borderopacity="1.0"
     inkscape:pageshadow="2"
     inkscape:pageopacity="0.0"
     inkscape:pagecheckerboard="0"
     showgrid="false"
     inkscape:zoom="2.9112912"
     inkscape:cx="44.138491"
     inkscape:cy="82.437648"
     inkscape:window-width="1366"
     inkscape:window-height="713"
     inkscape:window-x="0"
     inkscape:window-y="0"
     inkscape:window-maximized="1"
     inkscape:current-layer="svg6"
     inkscape:showpageshadow="2"
     inkscape:deskcolor="#d1d1d1" />
  <path
     d="M 40.458783,104.75945 C 36.002317,101.25621 31.244828,97.896956 27.996821,93.161276 21.15834,84.811141 15.89478,75.147829 12.29558,64.991533 10.118607,58.386455 9.3747726,51.303663 6.5695766,44.955982 3.6378646,40.34464 7.0734656,35.303578 12.125435,33.83772 c 2.246774,-0.431903 6.201532,-2.554342 1.428773,-1.038313 -4.2797764,3.14112 -4.6920494,-2.848824 -0.303204,-3.230555 2.99279,-0.394823 4.096545,-2.846643 3.071319,-5.051972 -3.215288,-2.098443 7.796088,-4.399751 2.255498,-7.529964 -5.769628,-6.22771 8.070935,-7.4252616 4.657149,-0.353376 -0.818002,5.435884 9.674217,-0.999052 7.237665,5.281008 2.475817,3.016784 9.266308,0.687122 9.096165,4.916729 3.603563,0.248673 4.84256,3.278545 8.223628,3.511948 3.507586,1.585828 9.861812,2.83137 11.055,6.783949 -3.477045,2.750661 -11.530531,-5.688919 -11.918806,1.932661 1.051403,11.262228 0.780916,22.860381 4.903637,33.583819 1.947933,6.496011 6.672702,11.6047 10.939392,16.665388 4.083455,4.953814 9.613138,8.439584 15.249705,11.373488 4.942902,2.33185 10.271901,3.87623 15.661981,4.8491 2.18351,-1.6709 6.04448,-7.883344 9.451733,-5.26356 0.16359,2.9448 -6.764333,6.15573 -0.32502,5.83289 3.78242,-1.14521 6.40439,2.923 9.51935,-0.74819 2.86844,3.39853 11.92534,-2.16824 9.88362,4.77712 -2.76376,1.77996 -6.78831,0.70021 -9.55208,3.15638 -4.55897,-2.27949 -8.18654,2.03519 -13.236333,1.49422 -5.60385,0.99905 -11.308037,1.40696 -16.990412,1.41351 -9.323023,-0.7351 -18.842364,-1.04704 -27.709486,-4.29068 -5.0018,-1.45277 -9.874899,-4.3016 -14.265926,-7.14387 z m 7.870253,3.41378 c 4.877464,2.10718 9.648042,4.32995 14.994491,5.00179 8.483207,1.17795 17.243447,2.99498 25.75719,1.34153 -3.854414,-1.74071 -7.83753,0.67184 -11.676678,-1.24554 -4.602615,0.9925 -9.543337,-0.25086 -14.22448,-0.8638 -5.320274,-2.36893 -11.063727,-4.00057 -16.048076,-7.07844 -6.227707,-2.27513 3.21965,2.91863 4.903639,3.33963 3.891502,2.20968 -4.279776,-1.1343 -5.433701,-2.05045 -3.261095,-1.83015 -3.67773,-1.44842 -0.322839,0.41008 0.676214,0.39046 1.343704,0.80928 2.050454,1.1452 z m -9.283757,-6.56145 c 4.729133,1.75379 -0.01962,-3.324364 -2.183516,-3.029884 -0.959787,-1.66654 -3.669003,-2.71795 -1.758154,-3.61011 -3.43342,1.1932 -3.599201,-4.53499 -5.211208,-3.71699 -3.636284,-1.147382 -1.413505,-5.213382 -5.745634,-7.708839 -0.394821,-2.630687 -4.29941,-4.910182 -5.544951,-8.878028 -0.549697,-2.032999 -4.415021,-7.863704 -2.041729,-2.438727 2.019915,5.226475 5.573307,9.704758 8.53556,14.174304 2.294765,4.25361 5.008344,8.70571 9.189961,11.36038 1.409142,1.35245 2.770294,3.424714 4.759671,3.847894 z M 25.429392,86.658724 c 0.161419,-0.713296 0.863807,1.544388 0,0 z m 19.28081,17.053676 c 1.04486,-0.47335 -1.5073,-0.59332 0,0 z m 2.56525,0.93362 c -0.263941,-1.29354 -1.173558,0.72419 0,0 z m 3.213106,1.33716 c 1.526934,-1.45496 -2.358022,-0.91835 0,0 z m 5.505686,3.06913 c 0.929249,-1.36988 -2.975339,-0.51479 0,0 z m -10.572926,-7.36856 c 2.373291,-1.53784 -3.069136,-0.0195 0,0 z m 2.408193,1.20192 c -0.06764,-0.81144 -0.857264,0.36211 0,0 z m 12.043147,7.51688 c 1.937024,1.22372 11.308035,2.67651 5.440246,0.49954 -0.983781,0.20941 -10.880494,-2.79647 -5.440246,-0.49954 z M 40.757626,95.510576 c -0.189775,-0.81145 -3.010241,-0.89871 0,0 z m 5.601666,3.26983 c 1.461494,-1.01652 -3.027692,-0.78529 0,0 z m 4.718226,2.892464 c 2.094081,-0.79183 -3.396337,-0.79403 0,0 z M 38.471587,93.026036 c 2.272952,1.74508 9.165967,0.22686 3.479229,-1.03831 -2.587064,-1.3786 -8.415588,-2.320935 -4.441195,0.8311 z m 15.799404,9.643694 c 0.94888,-1.61201 -3.97003,-0.92053 0,0 z m -4.801116,-3.815164 c 5.553676,1.572744 -4.670236,-3.51413 -1.369878,-0.57806 l 0.730747,0.32939 z m 9.628406,5.562414 c 5.259199,0.0525 -4.753124,-0.72422 0,0 z M 36.447311,89.983083 c -0.205045,-0.979422 -1.295714,0.08068 0,0 z m 31.546452,19.426957 c 0.139605,-1.76687 -1.714529,1.31754 0,0 z M 45.427862,95.482226 c -0.320655,-0.93362 -1.644725,-0.0415 0,0 z M 36.949017,89.37012 c 3.018965,-0.185408 -4.137991,-1.328427 0,0 z M 26.901793,82.876294 c -0.377372,-1.45059 -3.28509,-2.602333 0,0 z m 26.372328,16.737372 c -0.551878,-0.63258 -0.261761,0.13743 0,0 z M 69.686477,109.6849 c -0.05016,-0.96415 -0.894344,0.36428 0,0 z M 51.821352,98.112906 c 0.296661,-1.24554 -2.576155,-0.37956 0,0 z m -12.228559,-7.75027 c 2.246775,-0.239954 -3.601382,-1.520394 0,0 z m 20.685592,12.850234 c 3.501041,-1.38515 -3.413788,-0.67401 0,0 z M 49.517864,95.911956 c 4.035468,0.51915 -4.801116,-2.74631 -0.887803,-0.29448 z m 14.025979,8.624994 c 3.769345,-2.25114 2.525982,5.27447 6.393489,0.63475 3.812973,-2.78555 -3.293815,3.44214 1.404778,0.49736 3.400701,-2.27295 8.422133,1.07758 11.593793,2.17043 2.279494,-0.11129 4.49791,1.97193 6.838484,0.70238 4.50227,-1.21282 -8.806049,-1.79742 -5.318095,-3.94603 -4.118358,1.19755 -7.159139,-1.42878 -9.18778,-4.06818 -4.622246,-1.066684 -9.959971,-3.431254 -12.270004,-7.521254 -0.942337,-1.53348 1.356791,0.22031 -0.813636,-2.2904 -2.783383,-2.477995 -4.172892,-5.291912 -6.042297,-8.299969 -2.231505,-1.18883 -2.495445,-4.694242 -2.720123,-0.1178 0.01745,-2.888093 -2.69613,-4.833839 -3.361436,-4.028924 -0.01097,-2.783384 2.907719,-1.387335 0.863809,-3.446513 -0.438448,-2.885905 -1.886856,-5.889602 -2.32094,-9.146333 -0.674034,-1.572741 -0.0938,-4.934178 -2.307851,-1.380783 -0.804914,3.756256 -0.266125,-4.613522 0.988142,-1.856317 1.642545,-2.818284 -0.591139,-2.48454 -0.682755,-2.09626 1.071034,-2.375474 0.678394,-5.745635 -0.281393,-4.46083 0.569327,-2.519441 0.900891,-9.272851 -0.852901,-8.073118 1.06449,-2.635051 2.019914,-12.058413 -2.602333,-8.465757 -1.871584,0.02837 -5.115228,0.676213 -6.644342,1.439682 4.801115,2.648138 -0.484257,0.957603 -2.443095,0.534427 -0.253034,2.453998 -2.190061,1.396051 -4.61134,1.417864 3.865324,0.475532 -1.882492,3.954761 -4.096546,2.602333 -2.881543,1.374241 2.484539,4.814205 0.05672,5.876514 0.298842,1.598917 -4.41284,-0.580234 -4.044193,3.119308 -2.796471,-1.180102 -0.381736,4.388845 1.016501,2.504171 4.755308,1.28917 3.346167,4.22088 3.466139,7.006446 -0.774372,1.625093 -3.82606,-3.817335 -0.680576,-3.564301 -2.482357,-4.033285 -2.744118,-1.45713 -4.809842,0.416635 -0.477712,0.133063 5.261379,2.665591 1.659996,3.915496 3.167299,0.490799 3.261096,3.261094 3.908951,5.017067 1.902123,1.985014 1.511665,-2.190058 3.791159,0.196321 -1.444044,-2.128982 -7.641215,-5.989944 -2.652503,-4.750947 -0.02619,-2.137706 -0.903071,-3.863142 0.628225,-3.821696 1.516027,-2.739756 -1.588014,6.762136 1.825775,3.278545 0.946701,-0.414454 1.180103,-2.744119 2.879362,0.220316 2.464909,2.427824 0.892165,4.185979 -2.589244,1.956655 0.62168,2.118075 4.654968,2.868454 3.895864,6.170995 0.802731,2.907724 1.928298,1.836679 2.907717,1.668717 0.76783,2.82265 1.206278,0.748205 1.241178,-0.593322 3.516313,0.752562 2.691768,2.831373 3.795524,4.286318 2.425642,1.090678 -3.470504,-7.41653 0.691482,-2.558699 4.377938,3.952581 1.642544,5.59949 -2.28604,4.969082 2.486722,-0.202863 3.287272,3.361436 6.400035,3.237095 2.837917,1.34807 4.759673,6.530912 -0.13306,4.373572 -1.694897,-1.531289 -7.700111,-3.41597 -2.792108,-0.506067 4.526267,2.096266 8.123288,3.348347 12.490318,5.983407 3.123672,2.22714 4.473916,4.78148 5.658381,5.29409 -2.626326,1.247724 -7.91388,-1.0056 -3.987479,-1.6949 -2.451818,-0.44279 -5.206844,-1.68617 -2.861908,1.36769 1.998099,1.666564 7.069703,1.494234 7.9815,1.679654 -0.772192,1.6949 -2.09408,1.83233 0.02836,1.96319 -2.362386,1.26736 0.770011,1.46587 0.988146,2.18788 z M 58.694737,90.844706 c -1.444045,-1.509486 -1.819234,-4.332125 -0.257399,-1.878134 0.800551,0.322839 2.563068,4.615714 0.257399,1.878134 z M 74.485415,100.8723 c 0.900889,-0.0589 0.02837,0.68494 0,0 z M 56.417423,87.140802 c -0.05671,-2.279495 0.521339,1.760338 0,0 z m -1.56838,-2.107167 c -1.81705,-3.505412 2.288221,0.990324 0,0 z M 35.827811,71.906365 c 1.066671,-0.285756 0.525702,1.819228 0,0 z m 15.138459,8.201812 c 0.6544,-2.458359 0.770009,2.061365 0,0 z M 40.271187,72.672012 c -0.752558,-1.354609 1.577106,1.273898 0,0 z m 9.176874,2.942618 c -1.718892,-3.852236 1.221546,-2.104987 0.381734,0.630408 z M 33.620302,65.059155 c -0.76783,-1.262991 -2.039549,-4.969078 -1.627276,-6.10337 0.366464,1.845406 3.917675,7.933511 1.738523,2.521621 -2.406011,-4.534994 2.877181,1.468036 3.420332,2.604513 0.255216,1.125569 -1.48549,-0.307568 -0.307569,2.331846 -2.146431,-3.003698 -1.265173,1.659995 -3.22401,-1.35461 z m -4.88837,-3.372344 c 0.200681,-2.938255 1.116842,2.013373 0,0 z m 2.198784,0.761288 c 1.049223,-2.218416 1.777786,3.090951 0,0 z M 25.63662,58.351553 c -1.819235,-1.812687 -3.136759,-3.477045 0.08942,-1.121205 1.238997,0.04581 -2.76375,-3.797703 0.296661,-1.223728 3.217468,0.58896 1.588012,5.276646 -0.386096,2.344933 z m 2.781199,-0.07198 c 1.057946,-1.049221 0.560602,1.031771 0,0 z m 1.712346,0.547515 c -1.605462,-3.003697 1.945751,1.262993 0,0 z m -3.4007,-3.248006 c -5.291914,-4.713863 6.650889,2.460544 0.863809,0.872532 z m 15.168999,8.810407 c -2.292582,-1.372058 -0.610773,-9.667672 0.174506,-3.996202 2.22496,-0.719841 -0.124337,2.931713 1.53566,2.896811 -0.26176,2.305671 -1.005594,3.130213 -1.710166,1.099391 z m 5.610391,3.31999 c 0.224678,-2.50199 0.47117,1.705803 0,0 z M 46.5338,66.740962 c 0.250853,-1.06231 0.024,1.260809 0,0 z M 27.765601,54.030331 c -3.402882,-4.689868 9.883623,4.748763 2.179153,1.191008 -0.804913,-0.211589 -1.775607,-0.290119 -2.179153,-1.191008 z m 10.80633,5.726002 c -0.322838,-3.950396 0.715475,0.6544 0,0 z m 8.199633,5.263558 c 0.634769,-2.248955 0.05016,1.487671 0,0 z M 28.28912,52.239456 c 2.022097,-0.431905 8.374142,3.546851 2.541255,1.136473 -0.647856,-0.717656 -2.033003,-0.392638 -2.541255,-1.136473 z m 17.356876,8.651172 c 0.215953,-4.042014 1.208459,-2.410375 0.0086,0.578051 z M 29.792058,50.832495 c 0.822365,-1.20846 -2.187876,-5.459879 0.434087,-1.522572 1.132112,0.898711 3.276364,1.505121 1.382966,1.882493 2.979703,2.630689 -0.724202,0.711113 -1.817053,-0.359921 z m 14.99449,8.797321 c 0.56933,-4.602615 0.50389,2.693947 0,0 z M 28.068805,46.581074 c 0.632588,-0.268304 0.335926,0.839815 0,0 z m 3.915494,2.327485 c 1.005597,-2.113712 1.854136,2.355841 0,0 z m 11.028825,6.138273 c -0.0068,-0.813637 0.21159,1.180101 0,0 z m -0.636948,-1.415686 c -1.529116,-3.775888 1.424411,2.000284 0,0 z m -0.940155,-2.477995 c -0.255214,-1.557472 0.874715,1.961021 0,0 z M 42.9695,48.66643 c -1.053585,-1.851953 1.324068,-8.15819 1.592374,-4.244876 -1.110301,3.045143 -0.318476,4.753128 0.451535,0.665308 1.428774,-3.219651 -0.30975,6.347682 -2.043909,3.579568 z m 1.570559,-9.381917 c 0.45808,-0.560604 0.102509,0.678394 0,0 z m -2.626326,51.752143 c -0.623861,-0.54533 0.07854,0.34247 0,0 z m 5.409707,2.73321 c 3.010242,0.7722 2.994973,-0.46897 0.274851,-0.83763 -1.461495,-1.36115 -6.07938,-2.805189 -1.945751,-0.17015 0.270485,0.69585 1.134293,0.6784 1.6709,1.00778 z M 36.641449,86.673999 c 1.655632,1.238996 6.242979,3.501037 2.362385,0.471168 1.3088,-1.518211 -2.504172,-2.329671 -1.24118,-3.348349 -3.219649,-1.967567 -2.541254,-1.790883 -0.283573,-1.729805 -3.867505,-1.731974 0.558423,-1.598911 0.351193,-2.488892 -1.492032,-0.294483 -7.409988,-2.630698 -3.92858,0.191953 -3.538125,-1.801784 -0.844178,0.671852 -1.913031,0.41009 -3.621014,-0.983778 3.221831,2.757207 -0.57369,1.82796 2.074449,1.642542 5.586396,4.216519 0.874714,1.738517 -0.619498,0.894347 3.370161,2.246774 4.351762,2.927358 z m 5.6562,3.250185 c 6.877745,2.211882 -3.374524,-2.709217 0,0 z m 28.963753,17.548846 c 0.08942,-1.36553 -0.937973,1.16264 0,0 z m 2.977521,1.24989 c 1.588011,-1.53347 0.06543,2.45182 2.628507,-0.37518 0.02837,-2.02428 -0.07635,-3.22183 -2.9448,-0.76348 -0.794006,0.44282 -1.1452,2.30132 0.316293,1.13866 z M 26.982502,79.043689 c -0.486439,-1.910848 -3.418153,-1.906482 0,0 z m 3.176021,2.085354 c -1.180102,-1.956658 -4.209974,-1.773427 0,0 z m 18.087623,10.906663 c 1.76688,1.57057 8.110201,1.15175 2.144251,0.19415 -0.881259,-1.30663 -5.60821,-0.99688 -2.144251,-0.19415 z M 73.10463,107.39015 c 2.717942,-2.28169 -2.632871,1.01431 0,0 z m 5.654018,3.88275 c 0.01745,-0.73292 -1.171377,0.31849 0,0 z m 0.0086,-1.02521 c 3.008061,-3.18912 -2.914262,0.18758 0,0 z M 19.162386,72.499686 c -2.565247,-3.658097 -1.594555,-5.302822 -4.066007,-8.29125 -0.471168,-2.286039 -4.244875,-7.471069 -1.952292,-1.97847 2.098442,3.213104 2.720121,8.186547 6.018299,10.26972 z m 58.660437,36.735844 c 5.538407,-3.57738 -2.27295,-1.56184 0,0 z m 4.225244,1.65348 c 2.774655,-2.38203 -1.753792,-0.49519 0,0 z M 26.042345,74.999498 c 0.791825,-1.177918 -2.050453,-0.152697 0,0 z M 81.16684,109.75906 c 2.685222,-1.72762 -0.619497,-1.46368 -0.486436,0.15705 z M 44.73638,86.798331 c -0.09162,-1.169196 -1.417868,0.09817 0,0 z m 2.251135,1.293528 c -0.717657,-1.446224 -1.099391,0.229039 0,0 z m 38.485278,22.836401 c 3.439964,-2.48236 -2.083174,-0.47335 -0.719838,0.47116 z m -1.317526,-0.63478 c 2.803016,-2.34928 -2.955707,1.03831 0,0 z m 6.7316,4.48046 c 1.88249,-1.2608 -2.288222,-0.4079 0,0 z M 27.765601,74.148773 c 2.51944,0.564965 10.07558,6.210265 5.619117,0.392647 -2.283857,-0.676219 -0.91398,-6.256071 -3.243646,-5.270108 1.564018,2.613237 1.284806,3.721356 -1.99592,2.07663 -4.122722,-2.015553 -2.318757,0.996869 -1.509483,1.825775 -1.099392,0.248671 1.452768,0.957611 1.129932,0.975056 z M 16.280876,65.078789 c 0.451537,-1.869404 -4.157622,-10.269722 -2.176971,-4.212157 0.713295,1.269536 0.641311,3.673366 2.176971,4.212157 z m 21.082593,12.998565 c -1.302256,-1.086299 -0.06326,-0.157052 0,0 z m 3.195656,0.743839 c 0,-1.976289 -3.533762,-0.804916 0,0 z M 68.26643,96.284946 c -0.530065,-1.34805 -2.087536,-0.0306 0,0 z m 1.330614,0.97071 c -0.198502,-0.75693 -0.767829,0.14832 0,0 z m 10.980836,6.919194 c 1.055766,-0.77655 -1.317526,-0.10032 0,0 z M 22.015604,66.542463 c 3.021147,-1.169196 -3.239281,-0.833269 0,0 z m 43.809913,27.598243 c -0.03271,-1.95229 -1.926117,0.48861 0,0 z M 20.822415,63.761262 c 1.939203,-0.656581 -1.79742,-0.431903 0,0 z m 5.630023,2.726668 c -0.03054,-0.641311 -0.593325,0.24649 0,0 z m 68.703289,42.12812 c 2.49546,-0.49953 8.182213,1.26953 9.100543,-0.66095 -3.03207,-0.0741 -10.483503,-2.13552 -10.834693,0.4908 l 0.66312,0.1047 z M 28.243312,66.941647 c 0.04581,-1.985013 -1.544384,-0.07635 0,0 z M 13.436416,56.667564 c -0.67185,-3.77589 -2.558703,-0.573691 0,0 z m 3.529399,0.88562 c 0.04581,-1.212821 -3.230556,-1.090666 0,0 z m 2.019916,0.992508 c -0.584598,-0.471168 -0.4559,0.595505 0,0 z m 12.697545,8.145103 c 0.599867,-0.551879 -1.415685,-0.405729 0,0 z M 17.64421,56.309824 c -0.34465,-2.851002 -4.094364,-0.425359 0,0 z m -7.246392,-4.696412 c -0.100339,-1.317525 -0.7023894,0.495164 0,0 z m 1.079761,-0.813637 c -0.174507,-1.564017 -0.924885,0.196319 0,0 z m 5.948497,3.54903 c 2.517261,-0.985964 -4.5808,-2.04391 -0.514795,-0.185412 z m 79.638331,49.193445 c 1.61201,-1.47675 -2.04392,-0.45591 0,0 z m 9.621873,4.98435 c 0.64566,-1.90212 -1.62728,0.25303 0,0 z M 18.036849,51.23386 c 0.263942,-1.84977 -1.9981,0.364284 0,0 z M 9.5689126,45.560209 c -0.453719,-2.606693 -0.390461,-7.180951 3.9569384,-5.636565 -5.8045304,1.153924 4.020198,7.218034 2.7812,2.427825 2.440914,0.122152 4.77276,-1.441861 3.494498,0.927067 4.809843,-0.527883 8.142919,-4.700776 12.791345,-4.116178 3.618832,-0.479893 7.577953,-0.844175 11.475997,-2.301308 3.208742,-0.22904 6.297512,-3.682091 4.539358,-5.728183 -4.373576,-0.370827 -8.952196,0.17887 -13.786034,1.138657 -5.355175,1.112479 -10.221731,3.226192 -15.627077,4.135809 -5.270102,0.708934 1.057948,1.952295 -0.453717,2.227141 -2.7463,0.955425 3.280726,1.596738 -0.355557,2.602334 C 16.14127,40.809265 13.80288,40.039255 14.762667,37.672506 9.7172426,38.329088 5.2804076,40.42099 9.2678876,45.555848 Z M 21.73203,39.367404 c 1.182283,-4.358306 6.336775,3.586112 1.937026,0.578052 -0.523521,-0.39482 -1.389511,-0.715478 -1.937026,-0.578052 z m 0.229041,-2.115894 c 1.707985,-1.269536 0.905254,0.715476 0,0 z m 2.166065,0.03709 c 0.157056,-2.004648 4.966896,1.062309 0.794004,0.722019 z m 2.966614,-1.191016 c 1.084121,-1.269537 0.314112,1.121206 0,0 z m 0.759102,-0.508251 c 1.803965,-2.168246 10.210827,-1.38733 4.057283,-0.213772 -1.649089,-1.241178 -2.912081,0.73293 -4.057283,0.213772 z M 38.829327,33.89662 c -0.272667,-5.922321 5.453335,2.100624 0,0 z m 3.114945,-0.02183 c 1.136476,-2.97752 4.419384,-1.195371 0.527882,-0.597686 0.08289,0.320657 -0.115617,1.544386 -0.527882,0.597686 z M 16.808758,49.702561 c 3.400701,-2.083175 -3.610107,-1.810508 0,0 z m 2.515079,0.695846 c 1.19319,-1.267358 -2.593605,-0.512615 0,0 z m -7.412172,-5.257014 c 1.943568,-1.496395 -2.3013074,-0.569328 0,0 z M 112.36428,107.98346 c 0.0589,-1.73417 -1.48547,0.77874 0,0 z m -10.20645,-6.96502 c 0.29229,-1.993724 -1.31318,0.17234 0,0 z m 13.01384,7.63686 c 2.71794,0.0132 8.23454,-0.84417 2.32094,-0.84199 -0.92924,0.14179 -5.40535,0.11563 -2.32094,0.84199 z M 21.535711,49.176862 c 2.200965,-0.148331 3.442144,-2.425642 -0.427543,-2.296944 -5.992124,-0.615137 5.287555,2.054818 -0.77001,1.29135 -0.809276,0.536607 1.151744,1.153926 1.197553,1.005594 z m 1.937024,0.979421 c -0.229039,-1.409144 -0.680576,0.750377 0,0 z m 2.299127,-6.127369 c 0.953243,-1.182283 -1.321889,-0.316295 0,0 z M 18.455667,31.802536 c 3.926401,-1.332794 9.296845,-2.835734 11.148799,0.656582 -1.886856,-2.268587 -0.763468,-4.504455 1.020863,-1.184466 2.519441,3.357075 3.778071,-1.526932 2.14207,-2.654681 1.867222,2.318756 3.989661,3.418151 1.249904,0.146149 2.979702,-3.581752 -5.963766,0.471169 -7.994589,0.429723 -0.979419,0.436267 -10.097395,2.32312 -7.567047,2.606693 z m 2.301307,-4.406293 c 2.235866,-1.690535 7.743736,1.005594 4.209975,-1.681809 -0.346831,-0.303207 -7.73283,2.039546 -4.209975,1.681809 z m 8.164734,0.338106 c 2.6176,0.06543 -1.132114,-3.522855 1.989376,-1.897763 -0.510433,-1.67308 -3.634102,-1.985012 -5.161037,-2.656863 -0.865988,1.533478 1.755974,4.574257 3.171661,4.554626 z m -6.73378,-7.409992 c 0.907436,-1.230272 -1.58801,0.62386 0,0 z m 3.337443,0.796186 c 4.223062,-0.558422 -1.077579,-1.817051 -0.852903,-0.04363 z M 19.29548,16.249625 c -2.97534,-3.884957 5.592941,0.652218 2.56961,-3.413789 -2.543434,-2.024277 -4.984348,2.283857 -2.56961,3.413789 z m 38.153714,20.550348 c 1.363334,-2.416918 -5.627842,-3.258913 -0.916159,-0.855084 0.429723,0.141787 0.333742,1.018683 0.916159,0.855084 z m 0,0"
     id="path2"
     style="fill:#000000;fill-opacity:1;stroke-width:2.18134" />
</svg>
