<?xml version="1.0" encoding="UTF-8" standalone="no"?>
<svg
   viewBox="0 0 128 128"
   version="1.1"
   id="svg8"
   sodipodi:docname="git.svg"
   inkscape:version="1.2 (dc2aedaf03, 2022-05-15)"
   xmlns:inkscape="http://www.inkscape.org/namespaces/inkscape"
   xmlns:sodipodi="http://sodipodi.sourceforge.net/DTD/sodipodi-0.dtd"
   xmlns="http://www.w3.org/2000/svg"
   xmlns:svg="http://www.w3.org/2000/svg">
  <defs
     id="defs12" />
  <sodipodi:namedview
     id="namedview10"
     pagecolor="#ffffff"
     bordercolor="#666666"
     borderopacity="1.0"
     inkscape:pageshadow="2"
     inkscape:pageopacity="0.0"
     inkscape:pagecheckerboard="0"
     showgrid="false"
     inkscape:zoom="2.0585938"
     inkscape:cx="33.275142"
     inkscape:cy="68.00759"
     inkscape:window-width="1366"
     inkscape:window-height="713"
     inkscape:window-x="0"
     inkscape:window-y="0"
     inkscape:window-maximized="1"
     inkscape:current-layer="svg8"
     inkscape:showpageshadow="2"
     inkscape:deskcolor="#d1d1d1" />
  <path
     fill="#f34f29"
     d="M 121.90072,58.638997 69.357437,6.0980307 a 7.7490302,7.7490302 0 0 0 -10.957199,0 L 47.489235,17.009035 61.326623,30.848733 a 9.1995193,9.1995193 0 0 1 9.469754,2.20807 9.2110678,9.2110678 0 0 1 2.187282,9.527497 L 86.322154,55.922794 A 9.2110678,9.2110678 0 0 1 95.849649,71.15062 9.2203066,9.2203066 0 0 1 80.799671,61.121919 L 68.359648,48.681897 68.357319,81.419529 A 9.2203066,9.2203066 0 0 1 70.796326,96.203894 9.2226163,9.2226163 0 1 1 60.774554,81.149295 V 48.109092 A 9.2156872,9.2156872 0 0 1 55.769494,36.015523 L 42.12843,22.36984 6.0994812,58.396479 a 7.7513398,7.7513398 0 0 0 0,10.964127 L 58.642757,121.90157 a 7.7536496,7.7536496 0 0 0 10.961816,0 L 121.90072,69.600814 a 7.7490302,7.7490302 0 0 0 0,-10.961817 z"
     id="path4"
     style="stroke-width:2.3097" />
  <path
     fill="none"
     d="M1.58 37.928h124.84v52.143H1.58z"
     id="path6" />
</svg>
