<?xml version="1.0" encoding="UTF-8" standalone="no"?>
<svg
   viewBox="0 0 128 128"
   version="1.1"
   id="svg10"
   sodipodi:docname="python.svg"
   inkscape:version="1.2 (dc2aedaf03, 2022-05-15)"
   xmlns:inkscape="http://www.inkscape.org/namespaces/inkscape"
   xmlns:sodipodi="http://sodipodi.sourceforge.net/DTD/sodipodi-0.dtd"
   xmlns="http://www.w3.org/2000/svg"
   xmlns:svg="http://www.w3.org/2000/svg">
  <defs
     id="defs14" />
  <sodipodi:namedview
     id="namedview12"
     pagecolor="#ffffff"
     bordercolor="#666666"
     borderopacity="1.0"
     inkscape:pageshadow="2"
     inkscape:pageopacity="0.0"
     inkscape:pagecheckerboard="0"
     showgrid="false"
     inkscape:zoom="2.0585938"
     inkscape:cx="89.138518"
     inkscape:cy="81.609106"
     inkscape:window-width="1366"
     inkscape:window-height="713"
     inkscape:window-x="0"
     inkscape:window-y="0"
     inkscape:window-maximized="1"
     inkscape:current-layer="g8"
     inkscape:showpageshadow="2"
     inkscape:deskcolor="#d1d1d1"
     showguides="true" />
  <g
     fill-rule="evenodd"
     clip-rule="evenodd"
     id="g8">
    <g
       id="g722"
       transform="matrix(1.1294489,0,0,1.1294489,-26.578778,-0.67364536)">
      <path
         fill="#386f9f"
         d="m 60.951073,30.667706 c 5.156652,0 10.313303,0.07963 15.46309,-0.05492 1.366045,-0.0357 3.81669,1.094209 3.706858,-1.74497 -0.08375,-2.310608 -2.226861,-1.474505 -3.525634,-1.495099 -5.817021,-0.09198 -11.653263,-0.313023 -17.446945,0.0508 -4.12285,0.256734 -5.337875,-1.308384 -4.820288,-5.089379 0.178478,-1.304265 0.0069,-2.655208 0.03432,-3.984186 C 54.543701,9.5001742 56.682695,6.4880089 65.266131,4.3050814 74.722737,1.9024883 84.400382,1.9821171 93.830903,4.0524659 c 8.477717,1.8616665 11.999237,8.4571281 11.570887,14.5583411 -0.5217,7.445293 -0.11807,14.955113 -0.12493,22.437474 -0.0124,9.408555 -4.87383,14.40183 -14.359272,14.532256 -7.81186,0.107087 -15.633331,0.192208 -23.441072,-0.02471 -9.305586,-0.260853 -16.131696,7.468632 -16.178375,16.2278 0,0.664489 0.113951,1.350944 -0.01785,1.992093 -0.66998,3.216729 2.007195,8.41594 -1.403115,9.371486 -5.189601,1.458031 -11.266102,1.458031 -15.843385,-3.172796 -1.551389,-1.565118 -2.858399,-3.318324 -3.5476,-5.34474 -3.678027,-10.79794 -4.258768,-21.733171 -0.796288,-32.699978 2.158215,-6.845331 8.028779,-11.102726 15.301086,-11.224915 5.318654,-0.08924 10.638682,-0.01785 15.957337,-0.01785 z m 9.475828,-15.266763 c -0.222412,-2.612649 -1.626899,-4.519621 -4.525113,-4.59925 -3.17005,-0.08237 -4.807932,1.834208 -4.812051,4.953461 -0.0027,2.891349 1.571983,4.743405 4.449603,4.827153 3.161812,0.09199 4.692607,-1.867159 4.887561,-5.181364 z"
         id="path2"
         style="stroke-width:1.37291" />
      <path
         fill="#ffcf46"
         d="m 100.75174,83.600264 c -5.821136,0 -11.645021,-0.0508 -17.466161,0.04119 -1.311129,0.01647 -3.510532,-0.812763 -3.579177,1.429199 -0.07688,2.54263 2.28315,1.880888 3.782368,1.89599 5.821139,0.07276 11.647771,0.134545 17.46754,-0.02746 2.9902,-0.08237 4.21071,0.490129 4.4345,4.015763 1.01183,15.960084 -5.914499,17.339854 -18.68943,20.243564 -7.328596,1.66534 -15.185762,0.78256 -22.412762,-2.45477 -5.976278,-2.67305 -9.643322,-6.52544 -9.180651,-13.738708 0.458552,-7.119913 0.535435,-14.331811 -0.01236,-21.44486 -0.658997,-8.584808 4.681624,-14.898823 15.067691,-14.901569 6.988113,-0.0014 14.022906,-0.534062 20.950612,0.102968 9.90555,0.908867 17.67211,-7.677314 18.01259,-17.661118 0.0137,-0.330872 -0.0714,-0.686456 0.0137,-0.993987 0.87317,-3.068455 -2.23236,-7.629263 1.92207,-9.179279 6.27832,-2.340812 13.35842,0.119443 16.56554,4.883442 4.04322,5.998245 4.58964,13.056378 5.24314,19.948387 0.70705,7.428818 -1.37703,14.422424 -4.49765,21.123599 -2.11978,4.544333 -5.68385,6.74099 -10.64967,6.747854 -5.65639,0.0041 -11.31141,0 -16.96917,0 -0.003,-0.01098 -0.003,-0.02059 -0.003,-0.0302 z m -1.515689,14.827432 c -0.621928,-2.836433 -1.901481,-4.772236 -5.196465,-4.853238 -3.426785,-0.08238 -4.310939,2.480849 -4.293091,4.769491 0.01922,2.432801 0.697438,5.425741 4.407042,5.145671 3.083557,-0.23614 4.586894,-2.14586 5.082514,-5.061924 z"
         id="path4"
         style="stroke-width:1.37291" />
    </g>
  </g>
</svg>
