<?xml version="1.0" encoding="UTF-8" standalone="no"?>
<svg
   viewBox="0 0 128 128"
   version="1.1"
   id="svg4"
   sodipodi:docname="ubuntu.svg"
   inkscape:version="1.2 (dc2aedaf03, 2022-05-15)"
   xmlns:inkscape="http://www.inkscape.org/namespaces/inkscape"
   xmlns:sodipodi="http://sodipodi.sourceforge.net/DTD/sodipodi-0.dtd"
   xmlns="http://www.w3.org/2000/svg"
   xmlns:svg="http://www.w3.org/2000/svg">
  <defs
     id="defs8" />
  <sodipodi:namedview
     id="namedview6"
     pagecolor="#ffffff"
     bordercolor="#666666"
     borderopacity="1.0"
     inkscape:pageshadow="2"
     inkscape:pageopacity="0.0"
     inkscape:pagecheckerboard="0"
     showgrid="false"
     inkscape:zoom="2.0585938"
     inkscape:cx="144.03036"
     inkscape:cy="83.55218"
     inkscape:window-width="1366"
     inkscape:window-height="713"
     inkscape:window-x="0"
     inkscape:window-y="0"
     inkscape:window-maximized="1"
     inkscape:current-layer="svg4"
     inkscape:showpageshadow="2"
     inkscape:deskcolor="#d1d1d1" />
  <path
     fill="#dd4814"
     d="m 64.000696,2.4892788 c -33.972734,0 -61.5121235,27.5393902 -61.5121235,61.5121232 0,33.967159 27.5393895,61.509318 61.5121235,61.509318 33.971342,0 61.510734,-27.542159 61.510734,-61.509318 0,-33.972733 -27.539392,-61.5121232 -61.510734,-61.5121232 z M 77.80177,23.673425 c 2.227887,-4.006087 7.304612,-5.411874 11.275805,-3.122373 3.971193,2.289502 5.298404,7.38733 2.947836,11.322688 -2.299778,3.850318 -7.263746,5.142671 -11.149126,2.902643 -3.88538,-2.240025 -5.254262,-7.183439 -3.074515,-11.102958 z m -13.801074,4.65103 c 3.302439,0 6.4961,0.457432 9.530773,1.295592 0.548948,3.422127 2.612366,6.414008 5.6161,8.143136 2.995294,1.732173 6.610879,2.025108 9.845957,0.797718 6.072135,5.971726 10.024472,14.092548 10.601832,23.139392 L 87.891782,61.87183 C 86.812353,49.618775 76.531278,40.011297 64.000696,40.011297 c -3.61065,0 -7.034419,0.801902 -10.105354,2.231379 L 48.188592,32.01599 C 53.103821,29.581819 58.51575,28.318335 64.000696,28.324455 Z M 22.173512,72.212872 c -4.578075,0.06004 -8.321593,-3.634392 -8.321981,-8.212855 -3.88e-4,-4.578466 3.742501,-8.273536 8.320586,-8.214271 4.494495,0.05819 8.107548,3.718006 8.107928,8.212874 3.81e-4,4.49487 -3.612049,8.155305 -8.106533,8.214252 z m 7.282661,0.730778 c 2.691208,-2.189168 4.252669,-5.474486 4.250775,-8.943644 0.0021,-3.469998 -1.559293,-6.756267 -4.250775,-8.946431 2.221616,-8.59499 7.567161,-15.933435 14.752199,-20.737871 l 6.003801,10.056542 c -6.168365,4.340032 -10.198793,11.511122 -10.198793,19.62776 0,8.113849 4.030428,15.283547 10.198793,19.622182 L 44.208372,93.68152 C 37.020544,88.879873 31.673605,81.541427 29.456173,72.94365 Z m 59.562456,34.38832 c -3.926689,2.2686 -8.949052,0.92197 -11.214071,-3.00678 -3.656861,-6.335489 2.172016,-13.928049 9.236712,-12.03382 7.064696,1.894227 8.313239,11.38443 1.977359,15.0406 z m -0.02511,-17.894253 c -3.235019,-1.227794 -6.850784,-0.934845 -9.845956,0.797718 -3.002343,1.730635 -5.065249,4.721772 -5.6161,8.143136 -3.103777,0.8609 -6.309815,1.29767 -9.530773,1.29838 -5.677464,0 -11.043928,-1.33464 -15.81071,-3.694323 l 5.70675,-10.225289 c 3.165069,1.472866 6.614365,2.23451 10.105354,2.231377 12.530583,0 22.811658,-9.606082 23.889692,-21.861928 l 11.704972,0.171538 c -0.57738,9.046844 -4.529701,17.167666 -10.603229,23.139391 z"
     id="path2"
     sodipodi:nodetypes="ssssssssssccccccscccssssscccccscccccsccccccccccc"
     style="stroke-width:1.39462" />
</svg>
