<svg width="36" height="36" viewBox="0 0 36 36" fill="none" xmlns="http://www.w3.org/2000/svg">
<path d="M29.5199 2.88H6.47988C4.49268 2.88 2.87988 4.4928 2.87988 6.48V29.52C2.87988 31.5072 4.49268 33.12 6.47988 33.12H29.5199C31.5071 33.12 33.1199 31.5072 33.1199 29.52V6.48C33.1199 4.4928 31.5071 2.88 29.5199 2.88ZM12.2399 14.4V28.08H7.91988V14.4H12.2399ZM7.91988 10.4184C7.91988 9.4104 8.78388 8.64 10.0799 8.64C11.3759 8.64 12.1895 9.4104 12.2399 10.4184C12.2399 11.4264 11.4335 12.24 10.0799 12.24C8.78388 12.24 7.91988 11.4264 7.91988 10.4184ZM28.0799 28.08H23.7599C23.7599 28.08 23.7599 21.4128 23.7599 20.88C23.7599 19.44 23.0399 18 21.2399 17.9712H21.1823C19.4399 17.9712 18.7199 19.4544 18.7199 20.88C18.7199 21.5352 18.7199 28.08 18.7199 28.08H14.3999V14.4H18.7199V16.2432C18.7199 16.2432 20.1095 14.4 22.9031 14.4C25.7615 14.4 28.0799 16.3656 28.0799 20.3472V28.08Z" fill="#19358C"/>
</svg>
